<svg xmlns="http://www.w3.org/2000/svg" width="385.95" height="35" viewBox="0 0 385.95 35"><rect class="svg__rect" x="0" y="0" width="122.74" height="35" fill="#31C4F3"/><rect class="svg__rect" x="120.74" y="0" width="265.21" height="35" fill="#389AD5"/><path class="svg__text" d="M16.67 22L14.22 22L14.22 13.47L16.74 13.47Q17.87 13.47 18.74 13.97Q19.62 14.48 20.10 15.40Q20.58 16.33 20.58 17.52L20.58 17.52L20.58 17.95Q20.58 19.16 20.10 20.08Q19.61 21.00 18.72 21.50Q17.83 22 16.67 22L16.67 22ZM15.70 14.66L15.70 20.82L16.67 20.82Q17.83 20.82 18.46 20.09Q19.08 19.36 19.09 17.99L19.09 17.99L19.09 17.52Q19.09 16.13 18.49 15.40Q17.89 14.66 16.74 14.66L16.74 14.66L15.70 14.66ZM24.78 18.00L24.78 18.00L24.78 17.52Q24.78 16.28 25.22 15.32Q25.66 14.37 26.47 13.86Q27.27 13.35 28.31 13.35Q29.36 13.35 30.16 13.85Q30.97 14.35 31.41 15.29Q31.85 16.23 31.85 17.48L31.85 17.48L31.85 17.96Q31.85 19.21 31.42 20.16Q30.99 21.10 30.18 21.61Q29.38 22.12 28.33 22.12L28.33 22.12Q27.29 22.12 26.48 21.61Q25.67 21.10 25.22 20.17Q24.78 19.23 24.78 18.00ZM26.26 17.46L26.26 17.96Q26.26 19.36 26.81 20.13Q27.35 20.90 28.33 20.90L28.33 20.90Q29.31 20.90 29.84 20.15Q30.37 19.40 30.37 17.96L30.37 17.96L30.37 17.51Q30.37 16.09 29.84 15.34Q29.30 14.58 28.31 14.58L28.31 14.58Q27.35 14.58 26.81 15.33Q26.27 16.09 26.26 17.46L26.26 17.46ZM36.05 18.19L36.05 18.19L36.05 17.39Q36.05 16.19 36.48 15.27Q36.90 14.35 37.70 13.85Q38.50 13.35 39.55 13.35L39.55 13.35Q40.97 13.35 41.83 14.12Q42.69 14.89 42.83 16.29L42.83 16.29L41.35 16.29Q41.25 15.37 40.82 14.96Q40.39 14.55 39.55 14.55L39.55 14.55Q38.59 14.55 38.07 15.26Q37.55 15.96 37.54 17.33L37.54 17.33L37.54 18.09Q37.54 19.47 38.03 20.20Q38.53 20.92 39.48 20.92L39.48 20.92Q40.36 20.92 40.80 20.53Q41.23 20.14 41.35 19.22L41.35 19.22L42.83 19.22Q42.70 20.59 41.82 21.35Q40.94 22.12 39.48 22.12L39.48 22.12Q38.46 22.12 37.69 21.63Q36.91 21.15 36.49 20.26Q36.07 19.37 36.05 18.19ZM48.62 22L47.14 22L47.14 13.47L48.62 13.47L48.62 17.47L49.44 16.46L51.94 13.47L53.73 13.47L50.56 17.25L53.91 22L52.16 22L49.59 18.31L48.62 19.34L48.62 22ZM63.27 22L57.69 22L57.69 13.47L63.23 13.47L63.23 14.66L59.18 14.66L59.18 17.02L62.68 17.02L62.68 18.19L59.18 18.19L59.18 20.82L63.27 20.82L63.27 22ZM68.95 22L67.47 22L67.47 13.47L70.47 13.47Q71.94 13.47 72.75 14.13Q73.55 14.79 73.55 16.05L73.55 16.05Q73.55 16.90 73.14 17.48Q72.72 18.06 71.98 18.37L71.98 18.37L73.90 21.92L73.90 22L72.31 22L70.60 18.71L68.95 18.71L68.95 22ZM68.95 14.66L68.95 17.52L70.47 17.52Q71.22 17.52 71.64 17.15Q72.07 16.77 72.07 16.11L72.07 16.11Q72.07 15.43 71.68 15.05Q71.29 14.68 70.51 14.66L70.51 14.66L68.95 14.66ZM79.43 22L77.94 22L77.94 13.47L83.36 13.47L83.36 14.66L79.43 14.66L79.43 17.20L82.86 17.20L82.86 18.38L79.43 18.38L79.43 22ZM89.09 22L87.61 22L87.61 13.47L89.09 13.47L89.09 22ZM99.25 22L93.90 22L93.90 13.47L95.38 13.47L95.38 20.82L99.25 20.82L99.25 22ZM108.96 22L103.38 22L103.38 13.47L108.92 13.47L108.92 14.66L104.86 14.66L104.86 17.02L108.37 17.02L108.37 18.19L104.86 18.19L104.86 20.82L108.96 20.82L108.96 22Z" fill="#FFFFFF"/><path class="svg__text" d="M141.31 22L134.93 22L134.93 13.60L137.31 13.60L137.31 20.11L141.31 20.11L141.31 22ZM145.66 18.26L145.66 18.26L145.66 13.60L148.04 13.60L148.04 18.19Q148.04 20.20 149.63 20.20L149.63 20.20Q151.22 20.20 151.22 18.19L151.22 18.19L151.22 13.60L153.56 13.60L153.56 18.26Q153.56 20.13 152.52 21.15Q151.48 22.17 149.61 22.17L149.61 22.17Q147.74 22.17 146.70 21.15Q145.66 20.13 145.66 18.26ZM160.98 22L158.65 22L158.65 13.60L160.60 13.60L164.31 18.07L164.31 13.60L166.64 13.60L166.64 22L164.69 22L160.98 17.52L160.98 22ZM171.37 17.80L171.37 17.80Q171.37 16.54 171.97 15.54Q172.57 14.55 173.64 13.99Q174.71 13.43 176.05 13.43L176.05 13.43Q177.23 13.43 178.16 13.83Q179.10 14.22 179.72 14.97L179.72 14.97L178.21 16.33Q177.37 15.40 176.19 15.40L176.19 15.40Q176.18 15.40 176.17 15.40L176.17 15.40Q175.09 15.40 174.43 16.06Q173.77 16.71 173.77 17.80L173.77 17.80Q173.77 18.50 174.07 19.04Q174.37 19.59 174.91 19.89Q175.45 20.20 176.15 20.20L176.15 20.20Q176.83 20.20 177.43 19.93L177.43 19.93L177.43 17.62L179.53 17.62L179.53 21.10Q178.81 21.61 177.87 21.89Q176.94 22.17 176.00 22.17L176.00 22.17Q174.68 22.17 173.63 21.61Q172.57 21.05 171.97 20.05Q171.37 19.06 171.37 17.80ZM193.83 22L191.49 22L191.49 13.60L193.45 13.60L197.16 18.07L197.16 13.60L199.49 13.60L199.49 22L197.54 22L193.83 17.52L193.83 22ZM204.22 17.80L204.22 17.80Q204.22 16.55 204.82 15.55Q205.43 14.56 206.49 14.00Q207.55 13.43 208.88 13.43L208.88 13.43Q210.22 13.43 211.28 14.00Q212.34 14.56 212.95 15.55Q213.55 16.55 213.55 17.80L213.55 17.80Q213.55 19.05 212.95 20.04Q212.34 21.04 211.28 21.60Q210.22 22.17 208.88 22.17L208.88 22.17Q207.55 22.17 206.49 21.60Q205.43 21.04 204.82 20.04Q204.22 19.05 204.22 17.80ZM206.62 17.80L206.62 17.80Q206.62 18.51 206.92 19.05Q207.22 19.60 207.74 19.90Q208.25 20.20 208.88 20.20L208.88 20.20Q209.52 20.20 210.04 19.90Q210.55 19.60 210.85 19.05Q211.15 18.51 211.15 17.80L211.15 17.80Q211.15 17.09 210.85 16.54Q210.55 16 210.04 15.70Q209.52 15.40 208.88 15.40L208.88 15.40Q208.25 15.40 207.73 15.70Q207.22 16 206.92 16.54Q206.62 17.09 206.62 17.80ZM222.26 22L218.28 22L218.28 13.60L222.26 13.60Q223.64 13.60 224.71 14.12Q225.77 14.63 226.36 15.58Q226.95 16.53 226.95 17.80L226.95 17.80Q226.95 19.07 226.36 20.02Q225.77 20.97 224.71 21.48Q223.64 22 222.26 22L222.26 22ZM220.66 15.50L220.66 20.10L222.16 20.10Q223.24 20.10 223.89 19.49Q224.55 18.88 224.55 17.80L224.55 17.80Q224.55 16.72 223.89 16.11Q223.24 15.50 222.16 15.50L222.16 15.50L220.66 15.50ZM231.61 18.26L231.61 18.26L231.61 13.60L233.99 13.60L233.99 18.19Q233.99 20.20 235.58 20.20L235.58 20.20Q237.16 20.20 237.16 18.19L237.16 18.19L237.16 13.60L239.51 13.60L239.51 18.26Q239.51 20.13 238.47 21.15Q237.43 22.17 235.56 22.17L235.56 22.17Q233.68 22.17 232.64 21.15Q231.61 20.13 231.61 18.26ZM250.98 22L244.59 22L244.59 13.60L246.97 13.60L246.97 20.11L250.98 20.11L250.98 22ZM262.14 22L255.40 22L255.40 13.60L261.99 13.60L261.99 15.44L257.75 15.44L257.75 16.85L261.48 16.85L261.48 18.63L257.75 18.63L257.75 20.17L262.14 20.17L262.14 22ZM277.89 22L273.92 22L273.92 13.60L277.89 13.60Q279.27 13.60 280.34 14.12Q281.41 14.63 282.00 15.58Q282.58 16.53 282.58 17.80L282.58 17.80Q282.58 19.07 282.00 20.02Q281.41 20.97 280.34 21.48Q279.27 22 277.89 22L277.89 22ZM276.30 15.50L276.30 20.10L277.80 20.10Q278.88 20.10 279.53 19.49Q280.18 18.88 280.18 17.80L280.18 17.80Q280.18 16.72 279.53 16.11Q278.88 15.50 277.80 15.50L277.80 15.50L276.30 15.50ZM294.06 22L287.31 22L287.31 13.60L293.90 13.60L293.90 15.44L289.67 15.44L289.67 16.85L293.40 16.85L293.40 18.63L289.67 18.63L289.67 20.17L294.06 20.17L294.06 22ZM300.65 15.48L298.07 15.48L298.07 13.60L305.59 13.60L305.59 15.48L303.03 15.48L303.03 22L300.65 22L300.65 15.48ZM316.71 22L309.97 22L309.97 13.60L316.56 13.60L316.56 15.44L312.32 15.44L312.32 16.85L316.05 16.85L316.05 18.63L312.32 18.63L312.32 20.17L316.71 20.17L316.71 22ZM321.09 17.80L321.09 17.80Q321.09 16.54 321.68 15.54Q322.28 14.55 323.33 13.99Q324.38 13.43 325.70 13.43L325.70 13.43Q326.86 13.43 327.78 13.84Q328.70 14.25 329.32 15.02L329.32 15.02L327.81 16.39Q326.99 15.40 325.83 15.40L325.83 15.40Q325.14 15.40 324.61 15.70Q324.07 16 323.78 16.54Q323.48 17.09 323.48 17.80L323.48 17.80Q323.48 18.51 323.78 19.05Q324.07 19.60 324.61 19.90Q325.14 20.20 325.83 20.20L325.83 20.20Q326.99 20.20 327.81 19.22L327.81 19.22L329.32 20.58Q328.71 21.35 327.78 21.76Q326.86 22.17 325.70 22.17L325.70 22.17Q324.38 22.17 323.33 21.61Q322.28 21.05 321.68 20.05Q321.09 19.06 321.09 17.80ZM335.65 15.48L333.06 15.48L333.06 13.60L340.59 13.60L340.59 15.48L338.02 15.48L338.02 22L335.65 22L335.65 15.48ZM347.34 22L344.96 22L344.96 13.60L347.34 13.60L347.34 22ZM352.08 17.80L352.08 17.80Q352.08 16.55 352.69 15.55Q353.29 14.56 354.35 14.00Q355.42 13.43 356.75 13.43L356.75 13.43Q358.08 13.43 359.14 14.00Q360.20 14.56 360.81 15.55Q361.42 16.55 361.42 17.80L361.42 17.80Q361.42 19.05 360.81 20.04Q360.20 21.04 359.14 21.60Q358.08 22.17 356.75 22.17L356.75 22.17Q355.42 22.17 354.35 21.60Q353.29 21.04 352.69 20.04Q352.08 19.05 352.08 17.80ZM354.48 17.80L354.48 17.80Q354.48 18.51 354.78 19.05Q355.08 19.60 355.60 19.90Q356.11 20.20 356.75 20.20L356.75 20.20Q357.38 20.20 357.90 19.90Q358.42 19.60 358.72 19.05Q359.01 18.51 359.01 17.80L359.01 17.80Q359.01 17.09 358.72 16.54Q358.42 16 357.90 15.70Q357.38 15.40 356.75 15.40L356.75 15.40Q356.11 15.40 355.59 15.70Q355.08 16 354.78 16.54Q354.48 17.09 354.48 17.80ZM368.48 22L366.14 22L366.14 13.60L368.10 13.60L371.81 18.07L371.81 13.60L374.14 13.60L374.14 22L372.19 22L368.48 17.52L368.48 22Z" fill="#FFFFFF" x="133.74"/></svg>